<svg width="48" height="48" viewBox="0 0 48 48" fill="none" xmlns="http://www.w3.org/2000/svg">
<path d="M4.86801 43.303L7.56201 33.468C5.90001 30.59 5.02601 27.324 5.02701 23.979C5.03201 13.514 13.548 5 24.014 5C29.093 5.002 33.859 6.979 37.444 10.566C41.028 14.154 43.002 18.922 43 23.994C42.996 34.459 34.478 42.974 24.014 42.974H24.006C20.829 42.973 17.706 42.176 14.933 40.663L4.86801 43.303Z" fill="white"/>
<path d="M4.868 43.803C4.736 43.803 4.608 43.751 4.513 43.655C4.388 43.528 4.339 43.343 4.386 43.172L7.025 33.536C5.389 30.63 4.526 27.33 4.528 23.98C4.532 13.238 13.273 4.5 24.014 4.5C29.224 4.502 34.119 6.531 37.798 10.213C41.477 13.896 43.502 18.79 43.5 23.994C43.496 34.735 34.754 43.474 24.014 43.474C20.825 43.473 17.67 42.686 14.87 41.197L4.995 43.786C4.953 43.798 4.911 43.803 4.868 43.803Z" fill="white"/>
<path d="M24.014 5C29.093 5.002 33.859 6.979 37.444 10.566C41.028 14.154 43.002 18.922 43 23.994C42.996 34.459 34.478 42.974 24.014 42.974H24.006C20.829 42.973 17.706 42.176 14.933 40.663L4.868 43.303L7.562 33.468C5.9 30.59 5.026 27.324 5.027 23.979C5.032 13.514 13.548 5 24.014 5ZM24.014 4C12.998 4 4.032 12.962 4.027 23.979C4.026 27.346 4.876 30.664 6.488 33.601L3.903 43.04C3.809 43.385 3.905 43.753 4.157 44.007C4.347 44.199 4.604 44.304 4.868 44.304C4.953 44.304 5.038 44.293 5.122 44.271L14.809 41.731C17.637 43.199 20.807 43.974 24.006 43.975C35.03 43.975 43.996 35.012 44.001 23.995C44.003 18.656 41.926 13.636 38.153 9.86C34.378 6.083 29.357 4.002 24.014 4Z" fill="#CFD8DC"/>
<path d="M35.176 12.8321C32.196 9.85005 28.235 8.20705 24.019 8.20605C15.315 8.20605 8.236 15.2821 8.232 23.9801C8.231 26.9611 9.065 29.8631 10.645 32.3761L11.021 32.9731L9.42599 38.7941L15.399 37.2281L15.976 37.5701C18.398 39.0081 21.176 39.7681 24.008 39.7691H24.014C32.712 39.7691 39.791 32.6921 39.794 23.9931C39.795 19.7781 38.156 15.8141 35.176 12.8321Z" fill="#40C351"/>
<path fill-rule="evenodd" clip-rule="evenodd" d="M19.268 16.0449C18.913 15.2549 18.539 15.2389 18.2 15.2249C17.923 15.2129 17.607 15.2139 17.291 15.2139C16.975 15.2139 16.461 15.3329 16.026 15.8079C15.591 16.2829 14.365 17.4299 14.365 19.7639C14.365 22.0979 16.065 24.3539 16.302 24.6699C16.539 24.9859 19.584 29.9289 24.406 31.8309C28.413 33.4109 29.229 33.0969 30.099 33.0179C30.969 32.9389 32.906 31.8709 33.301 30.7629C33.696 29.6549 33.696 28.7059 33.578 28.5079C33.459 28.3099 33.143 28.1919 32.669 27.9539C32.195 27.7159 29.862 26.5689 29.427 26.4109C28.992 26.2529 28.676 26.1739 28.359 26.6489C28.043 27.1229 27.134 28.1919 26.857 28.5079C26.58 28.8249 26.303 28.8649 25.829 28.6269C25.355 28.3889 23.827 27.8889 22.014 26.2729C20.604 25.0159 19.652 23.4629 19.375 22.9879C19.098 22.5139 19.345 22.2569 19.583 22.0199C19.796 21.8069 20.057 21.4659 20.295 21.1889C20.532 20.9119 20.611 20.7139 20.769 20.3979C20.927 20.0809 20.848 19.8039 20.729 19.5669C20.612 19.3289 19.69 16.9829 19.268 16.0449Z" fill="white"/>
</svg>
